<svg width="150" height="40" xmlns="http://www.w3.org/2000/svg" viewBox="0 0 150 40">
  <rect width="150" height="40" rx="6" ry="6" fill="#238636" stroke="#2EA043" stroke-width="1"/>
  <g>
    <!-- GitHub icon -->
    <path transform="translate(15, 10)" d="M10,0.2c-5.5,0-10,4.5-10,10c0,4.4,2.9,8.2,6.8,9.5c0.5,0.1,0.7-0.2,0.7-0.5c0-0.2,0-0.9,0-1.7c-2.8,0.6-3.4-1.3-3.4-1.3C3.7,15.1,3,14.7,3,14.7c-0.9-0.6,0.1-0.6,0.1-0.6c1,0.1,1.5,1,1.5,1c0.9,1.6,2.3,1.1,2.9,0.9c0.1-0.7,0.4-1.1,0.6-1.4c-2.2-0.3-4.6-1.1-4.6-5c0-1.1,0.4-2,1-2.7C4.5,6.4,4.2,5.4,4.7,4c0,0,0.8-0.3,2.8,1c0.8-0.2,1.7-0.3,2.5-0.3c0.8,0,1.7,0.1,2.5,0.3c1.9-1.3,2.8-1,2.8-1c0.6,1.4,0.2,2.4,0.1,2.7c0.6,0.7,1,1.6,1,2.7c0,3.9-2.4,4.7-4.6,5c0.4,0.3,0.7,0.9,0.7,1.9c0,1.4,0,2.5,0,2.8c0,0.3,0.2,0.6,0.7,0.5c4-1.3,6.8-5.1,6.8-9.5C20,4.7,15.5,0.2,10,0.2z" fill="#FFFFFF"/>
    <!-- Text -->
    <text x="45" y="25" font-family="Arial" font-size="14" font-weight="bold" fill="#FFFFFF">GitHub Repo</text>
  </g>
</svg>