<svg width="150" height="40" xmlns="http://www.w3.org/2000/svg" viewBox="0 0 150 40">
  <rect width="150" height="40" rx="6" ry="6" fill="#0D6EFD" stroke="#0A58CA" stroke-width="1"/>
  <g>
    <!-- Globe icon -->
    <path transform="translate(15, 10)" d="M10,0C4.5,0,0,4.5,0,10s4.5,10,10,10s10-4.5,10-10S15.5,0,10,0z M16.9,6h-2.9 c-0.3-1.3-0.8-2.4-1.4-3.5C14.4,3.1,16,4.3,16.9,6z M10,2c0.8,0,1.6,1.1,2.1,2.7C11.5,4.9,10.8,5,10,5S8.5,4.9,7.9,4.7 C8.4,3.1,9.2,2,10,2z M2.3,12c-0.2-0.6-0.3-1.3-0.3-2s0.1-1.4,0.3-2h3.3C5.5,8.7,5.5,9.3,5.5,10s0,1.3,0.1,2H2.3z M3.1,14h2.9 c0.3,1.3,0.8,2.4,1.4,3.5C5.6,16.9,4,15.7,3.1,14z M6,6H3.1c0.9-1.7,2.5-2.9,4.2-3.5C6.7,3.6,6.3,4.7,6,6z M10,18 c-0.8,0-1.6-1.1-2.1-2.7C8.5,15.1,9.2,15,10,15s1.5,0.1,2.1,0.3C11.6,16.9,10.8,18,10,18z M12.3,14H7.7c-0.4-1.2-0.6-2.6-0.6-4 s0.2-2.8,0.6-4h4.7c0.4,1.2,0.6,2.6,0.6,4S12.7,12.8,12.3,14z M13.5,17.5c0.6-1,1.1-2.2,1.4-3.5h2.9C16.9,15.7,15.3,16.9,13.5,17.5 z M15.1,12c0.1-0.7,0.1-1.3,0.1-2s0-1.3-0.1-2h3.3c0.2,0.6,0.3,1.3,0.3,2s-0.1,1.4-0.3,2H15.1z" fill="white"/>
    <!-- Text -->
    <text x="45" y="25" font-family="Arial" font-size="14" font-weight="bold" fill="#FFFFFF">Live Demo</text>
  </g>
</svg>